<svg id="appointment-blue" xmlns="http://www.w3.org/2000/svg" width="26.424" height="26.424" viewBox="0 0 26.424 26.424">
  <g id="Group_597" data-name="Group 597">
    <g id="Group_596" data-name="Group 596">
      <circle id="Ellipse_9" data-name="Ellipse 9" cx="1" cy="1" r="1" transform="translate(19.232 10.232)" fill="#5688e8"/>
      <path id="Path_6258" data-name="Path 6258" d="M22.3,2.064H20.954V1.032a1.032,1.032,0,1,0-2.064,0V2.064h-4.7V1.032a1.032,1.032,0,1,0-2.064,0V2.064H7.483V1.032a1.032,1.032,0,1,0-2.064,0V2.064H4.129A4.133,4.133,0,0,0,0,6.193V22.3a4.133,4.133,0,0,0,4.129,4.129h7.9a1.032,1.032,0,0,0,0-2.064h-7.9A2.067,2.067,0,0,1,2.064,22.3V6.193A2.067,2.067,0,0,1,4.129,4.129h1.29V5.161a1.032,1.032,0,0,0,2.064,0V4.129h4.645V5.161a1.032,1.032,0,1,0,2.064,0V4.129h4.7V5.161a1.032,1.032,0,0,0,2.064,0V4.129H22.3A2.067,2.067,0,0,1,24.36,6.193v5.884a1.032,1.032,0,0,0,2.064,0V6.193A4.133,4.133,0,0,0,22.3,2.064Z" fill="#5688e8"/>
      <path id="Path_6259" data-name="Path 6259" d="M276.245,270a6.245,6.245,0,1,0,6.245,6.245A6.252,6.252,0,0,0,276.245,270Zm0,10.425a4.18,4.18,0,1,1,4.18-4.18A4.185,4.185,0,0,1,276.245,280.425Z" transform="translate(-256.065 -256.065)" fill="#5688e8"/>
      <path id="Path_6260" data-name="Path 6260" d="M373.529,332.116h-.464v-1.084a1.032,1.032,0,1,0-2.064,0v2.116a1.032,1.032,0,0,0,1.032,1.032h1.5a1.032,1.032,0,1,0,0-2.064Z" transform="translate(-351.853 -312.969)" fill="#5688e8"/>
      <circle id="Ellipse_10" data-name="Ellipse 10" cx="1" cy="1" r="1" transform="translate(14.232 10.232)" fill="#5688e8"/>
      <circle id="Ellipse_11" data-name="Ellipse 11" cx="1" cy="1" r="1" transform="translate(10.232 14.232)" fill="#5688e8"/>
      <circle id="Ellipse_12" data-name="Ellipse 12" cx="1" cy="1" r="1" transform="translate(5.232 10.232)" fill="#5688e8"/>
      <circle id="Ellipse_13" data-name="Ellipse 13" cx="1" cy="1" r="1" transform="translate(5.232 14.232)" fill="#5688e8"/>
      <circle id="Ellipse_14" data-name="Ellipse 14" cx="1" cy="1" r="1" transform="translate(5.232 19.232)" fill="#5688e8"/>
      <circle id="Ellipse_15" data-name="Ellipse 15" cx="1" cy="1" r="1" transform="translate(10.232 19.232)" fill="#5688e8"/>
      <circle id="Ellipse_16" data-name="Ellipse 16" cx="1" cy="1" r="1" transform="translate(10.232 10.232)" fill="#5688e8"/>
    </g>
  </g>
</svg>
