<svg xmlns="http://www.w3.org/2000/svg" width="27.385" height="35.861" viewBox="0 0 27.385 35.861">
  <g id="billing-white" transform="translate(-86.439 -7)">
    <g id="Group_587" data-name="Group 587" transform="translate(95.32 29.368)">
      <g id="Group_586" data-name="Group 586">
        <path id="Path_6253" data-name="Path 6253" d="M194.379,283.386h-7.842a.9.9,0,0,0,0,1.79h7.842a.9.9,0,0,0,0-1.79Z" transform="translate(-185.642 -283.386)" fill="#fff"/>
      </g>
    </g>
    <g id="Group_591" data-name="Group 591" transform="translate(91.587 32.798)">
      <g id="Group_590" data-name="Group 590" transform="translate(0)">
        <path id="Path_6255" data-name="Path 6255" d="M160.145,366.386H144.837a.9.9,0,0,0,0,1.79h15.308a.9.9,0,0,0,0-1.79Z" transform="translate(-143.942 -366.386)" fill="#fff"/>
      </g>
    </g>
    <g id="Group_593" data-name="Group 593" transform="translate(86.439 0)">
      <g id="Group_592" data-name="Group 592">
        <path id="Path_6256" data-name="Path 6256" d="M113.277,7.061a.875.875,0,0,0-.976.233L110.395,9.38,108.488,7.3a.892.892,0,0,0-1.262-.054l-.054.054L105.265,9.38l-1.907-2.086A.892.892,0,0,0,102.1,7.24l-.054.054-1.907,2.077L98.229,7.294a.892.892,0,0,0-1.262-.054l-.054.054L95.006,9.371,93.1,7.294a.892.892,0,0,0-1.262-.054l-.054.054L89.877,9.371,87.961,7.294a.871.871,0,0,0-1.522.6V41.965a.879.879,0,0,0,.859.9.862.862,0,0,0,.671-.286l1.907-2.086,1.907,2.077a.892.892,0,0,0,1.262.054l.054-.054,1.907-2.077,1.907,2.077a.892.892,0,0,0,1.262.054l.054-.054,1.907-2.077,1.907,2.077a.892.892,0,0,0,1.262.054l.054-.054,1.907-2.077,1.907,2.077a.892.892,0,0,0,1.262.054l.054-.054,1.907-2.077,1.907,2.077a.887.887,0,0,0,.662.286.714.714,0,0,0,.3-.063.874.874,0,0,0,.555-.833V7.885A.85.85,0,0,0,113.277,7.061Zm-2.874,31.2a.9.9,0,0,0-.662.3l-1.907,2.086-1.907-2.077a.892.892,0,0,0-1.262-.054l-.054.054L102.7,40.64,100.8,38.563a.892.892,0,0,0-1.262-.054l-.054.054L97.575,40.64l-1.907-2.077a.892.892,0,0,0-1.262-.054l-.054.054L92.437,40.64,90.53,38.554a.9.9,0,0,0-.662-.3.844.844,0,0,0-.645.3l-.994,1.11V10.194l.994,1.1a.844.844,0,0,0,.645.3.9.9,0,0,0,.662-.3L92.437,9.21l1.907,2.077a.892.892,0,0,0,1.262.054l.054-.054L97.567,9.21l1.907,2.077a.892.892,0,0,0,1.262.054l.054-.054L102.7,9.21l1.907,2.077a.892.892,0,0,0,1.262.054l.054-.054,1.907-2.077,1.907,2.086a.9.9,0,0,0,.662.3.844.844,0,0,0,.645-.3l1-1.11v29.47l-.994-1.1A.844.844,0,0,0,110.4,38.259Z" transform="translate(-86.439 0)" fill="#fff"/>
      </g>
    </g>
    <g id="Group_595" data-name="Group 595" transform="translate(97.211 14.939)">
      <g id="Group_594" data-name="Group 594" transform="translate(0)">
        <path id="Path_6257" data-name="Path 6257" d="M212.471,96.062a2.913,2.913,0,0,0-2.775-2.023,1.128,1.128,0,1,1,1.119-1.128v.009a.9.9,0,0,0,1.79,0,2.913,2.913,0,0,0-2.023-2.775v-.564a.9.9,0,1,0-1.79,0v.564a2.917,2.917,0,0,0,.9,5.693,1.128,1.128,0,1,1,.018,2.256c0-.009,0-.009-.009-.009a1.129,1.129,0,0,1-1.128-1.128.9.9,0,0,0-1.79,0,2.921,2.921,0,0,0,2.023,2.775v.573a.9.9,0,1,0,1.79,0v-.573A2.919,2.919,0,0,0,212.471,96.062Z" transform="translate(-206.771 -88.686)" fill="#fff"/>
      </g>
    </g>
  </g>
</svg>
