<svg xmlns="http://www.w3.org/2000/svg" width="35" height="35" viewBox="0 0 35 35">
  <g id="dashboard-blue" transform="translate(0 0)">
    <path id="Path_6261" data-name="Path 6261" d="M13.489,11.667H2.552A2.555,2.555,0,0,1,0,9.115V2.552A2.555,2.555,0,0,1,2.552,0H13.489a2.555,2.555,0,0,1,2.552,2.552V9.115A2.555,2.555,0,0,1,13.489,11.667ZM2.552,2.188a.365.365,0,0,0-.364.364V9.115a.365.365,0,0,0,.364.365H13.489a.365.365,0,0,0,.365-.365V2.552a.365.365,0,0,0-.365-.364Zm0,0" fill="#5688e8"/>
    <path id="Path_6262" data-name="Path 6262" d="M13.489,233.749H2.552A2.555,2.555,0,0,1,0,231.2V215.884a2.555,2.555,0,0,1,2.552-2.552H13.489a2.555,2.555,0,0,1,2.552,2.552V231.2A2.555,2.555,0,0,1,13.489,233.749ZM2.552,215.52a.365.365,0,0,0-.364.365V231.2a.365.365,0,0,0,.364.364H13.489a.365.365,0,0,0,.365-.364V215.884a.365.365,0,0,0-.365-.365Zm0,0" transform="translate(0 -198.749)" fill="#5688e8"/>
    <path id="Path_6263" data-name="Path 6263" d="M290.822,353H279.884a2.555,2.555,0,0,1-2.552-2.552v-6.562a2.555,2.555,0,0,1,2.552-2.552h10.937a2.555,2.555,0,0,1,2.552,2.552v6.562A2.555,2.555,0,0,1,290.822,353Zm-10.937-9.479a.365.365,0,0,0-.365.365v6.562a.365.365,0,0,0,.365.365h10.937a.365.365,0,0,0,.365-.365v-6.562a.365.365,0,0,0-.365-.365Zm0,0" transform="translate(-258.374 -317.999)" fill="#5688e8"/>
    <path id="Path_6264" data-name="Path 6264" d="M290.822,20.417H279.884a2.555,2.555,0,0,1-2.552-2.552V2.552A2.555,2.555,0,0,1,279.884,0h10.937a2.555,2.555,0,0,1,2.552,2.552V17.864A2.555,2.555,0,0,1,290.822,20.417ZM279.884,2.188a.365.365,0,0,0-.365.364V17.864a.365.365,0,0,0,.365.365h10.937a.365.365,0,0,0,.365-.365V2.552a.365.365,0,0,0-.365-.364Zm0,0" transform="translate(-258.374)" fill="#5688e8"/>
  </g>
</svg>
