<svg xmlns="http://www.w3.org/2000/svg" width="35" height="35" viewBox="0 0 35 35">
  <g id="patient-blue" transform="translate(-330 -517)">
    <path id="Path_6267" data-name="Path 6267" d="M25.528,21.89h-.605a10.627,10.627,0,0,0,3.17-7.448c.006-.057,0-3.8,0-3.8a10.6,10.6,0,1,0-21.191,0s0,3.747,0,3.8a10.627,10.627,0,0,0,3.17,7.448H9.471A9.474,9.474,0,0,0,0,31.345V33.97a1.025,1.025,0,1,0,2.051,0V31.345a7.421,7.421,0,0,1,7.421-7.4H11.38a6.152,6.152,0,0,0,12.24,0h1.909a7.421,7.421,0,0,1,7.421,7.4v2.629a1.025,1.025,0,1,0,2.051,0V31.345a9.474,9.474,0,0,0-9.471-9.455ZM8.955,10.638q0-.436.043-.862a8.075,8.075,0,0,0,2.329.341A8.112,8.112,0,0,0,17.5,7.263a8.112,8.112,0,0,0,6.17,2.854A8.076,8.076,0,0,0,26,9.775q.043.426.043.864v3.117L22.712,15.68l-4.966-1.226a1.025,1.025,0,0,0-.492,0L12.288,15.68,8.955,13.755ZM12.988,21.6l-.7,1.3h9.538l.186-1.3a8.49,8.49,0,0,1-9.023,0Zm11.074-1.8V17.268l1.762-1.017A8.583,8.583,0,0,1,24.062,19.8ZM17.5,2.051a8.562,8.562,0,0,1,8.053,5.715,6.03,6.03,0,0,1-1.886.3,6.059,6.059,0,0,1-5.275-3.091,1.025,1.025,0,0,0-1.788,0,6.059,6.059,0,0,1-5.275,3.091,6.028,6.028,0,0,1-1.88-.3A8.562,8.562,0,0,1,17.5,2.051Zm-8.324,14.2,1.762,1.017V19.8A8.583,8.583,0,0,1,9.176,16.251ZM17.5,27.412a4.108,4.108,0,0,1-4.014-3.26,10.548,10.548,0,0,0,8.028,0A4.12,4.12,0,0,1,17.5,27.412Z" transform="translate(330 517)" fill="#5688e8"/>
  </g>
</svg>
