<svg xmlns="http://www.w3.org/2000/svg" width="27.385" height="39.121" viewBox="0 0 27.385 39.121">
  <g id="Treatment-white" transform="translate(-72)">
    <g id="Group_603" data-name="Group 603" transform="translate(72)">
      <g id="Group_602" data-name="Group 602" transform="translate(0)">
        <path id="Path_6270" data-name="Path 6270" d="M97.441,3.912H89.6V3.26A3.264,3.264,0,0,0,86.345,0h-1.3a3.264,3.264,0,0,0-3.26,3.26v.652H73.944A1.946,1.946,0,0,0,72,5.856V37.178a1.946,1.946,0,0,0,1.944,1.944h23.5a1.946,1.946,0,0,0,1.944-1.944V5.856A1.946,1.946,0,0,0,97.441,3.912ZM83.084,3.26A1.956,1.956,0,0,1,85.04,1.3h1.3A1.956,1.956,0,0,1,88.3,3.26v.652H83.084Zm7.706,1.956a1.956,1.956,0,0,1-1.838,1.3h-6.52a1.956,1.956,0,0,1-1.836-1.3Zm7.29,31.962a.64.64,0,0,1-.64.64h-23.5a.64.64,0,0,1-.64-.64V5.856a.64.64,0,0,1,.64-.64h5.294a3.266,3.266,0,0,0,3.195,2.608h6.52a3.266,3.266,0,0,0,3.195-2.608h5.294a.64.64,0,0,1,.64.64Z" transform="translate(-72)" fill="#fff"/>
        <path id="Path_6271" data-name="Path 6271" d="M117.627,121.658a.652.652,0,0,0-1.2.085l-1.289,3.868-.726-2.538a.652.652,0,0,0-1.185-.156l-.962,1.6-.439-3.948a.652.652,0,0,0-1.267-.134l-2.066,6.194-1.281-2.988a.652.652,0,0,0-.6-.393H104v1.3h2.178l1.787,4.169a.652.652,0,0,0,.6.4h.027a.652.652,0,0,0,.591-.445l1.669-5.008.326,2.917a.652.652,0,0,0,1.207.264l1.183-1.972L114.46,128a.652.652,0,0,0,.613.473.661.661,0,0,0,.632-.446l1.458-4.375.6,1.2a.652.652,0,0,0,.582.36h7.824v-1.3h-7.421Z" transform="translate(-101.392 -110.213)" fill="#fff"/>
        <rect id="Rectangle_1228" data-name="Rectangle 1228" width="23" height="2" transform="translate(2.193 22.846)" fill="#fff"/>
        <rect id="Rectangle_1232" data-name="Rectangle 1232" width="23" height="2" transform="translate(2.193 33.846)" fill="#fff"/>
        <rect id="Rectangle_1233" data-name="Rectangle 1233" width="23" height="1" transform="translate(2.193 28.846)" fill="#fff"/>
      </g>
    </g>
  </g>
</svg>
