<svg xmlns="http://www.w3.org/2000/svg" width="26.424" height="25.157" viewBox="0 0 26.424 25.157">
  <g id="managedoctor-blue" transform="translate(0 -11.508)">
    <g id="Group_599" data-name="Group 599" transform="translate(0 11.508)">
      <g id="Group_598" data-name="Group 598">
        <path id="Path_6265" data-name="Path 6265" d="M26.392,25.6a3.083,3.083,0,0,0-2.611-2.611v-.8a3.887,3.887,0,0,0-3.743-4.008,3.9,3.9,0,0,0-3.743,3.888h.026l-.026,0v8.679a4.843,4.843,0,0,1-4.624,5.028,4.844,4.844,0,0,1-4.624-5.028v-.752c.639,0,1.321-.463,1.321-1.762V27.136a6.245,6.245,0,0,0,4.844-5.9v-.918h-.881l-.018-5.732A2.2,2.2,0,0,0,10.5,12.429a1.314,1.314,0,1,0-.03.9,1.321,1.321,0,0,1,.96,1.26l.02,5.729H10.57v.931a3.5,3.5,0,0,1-2.535,3.286,4,4,0,0,1-2.422,0,3.5,3.5,0,0,1-2.53-3.286v-.931H1.762V14.591a1.321,1.321,0,0,1,.978-1.27,1.327,1.327,0,1,0-.027-.894A2.2,2.2,0,0,0,.881,14.591v5.725H0v.916a6.245,6.245,0,0,0,4.844,5.9v1.108c0,1.3.683,1.762,1.321,1.762v.752a5.723,5.723,0,0,0,5.5,5.908,5.725,5.725,0,0,0,5.5-5.908V22.1a3.014,3.014,0,0,1,2.863-3.031A3.007,3.007,0,0,1,22.9,22.195v.8A3.083,3.083,0,1,0,26.392,25.6ZM9.248,13.27a.44.44,0,1,1,.44-.44A.44.44,0,0,1,9.248,13.27Zm-5.285-.881a.44.44,0,1,1-.44.44A.44.44,0,0,1,3.964,12.389ZM.881,21.232V21.2H2.2v.05a4.376,4.376,0,0,0,3.144,4.123,4.9,4.9,0,0,0,2.959,0,4.377,4.377,0,0,0,3.146-4.123V21.2h.881v.035A5.4,5.4,0,0,1,7.839,26.36a6.282,6.282,0,0,1-1.858.091,5.752,5.752,0,0,1-.608-.092A5.4,5.4,0,0,1,.881,21.232Zm5.285,7.892c-.4,0-.44-.617-.44-.881v-.935c.035,0,.071.006.107.01l.132.012c.208.018.418.031.63.031h.022c.211,0,.421-.013.628-.031l.136-.012c.035,0,.071-.005.106-.01v.935c0,.264-.044.881-.44.881Zm17.176-.881a2.2,2.2,0,1,1,2.2-2.2A2.2,2.2,0,0,1,23.341,28.244Z" transform="translate(0 -11.508)" fill="#5688e8"/>
      </g>
    </g>
    <g id="Group_601" data-name="Group 601" transform="translate(22.02 24.72)">
      <g id="Group_600" data-name="Group 600">
        <path id="Path_6266" data-name="Path 6266" d="M401.321,251.515a1.321,1.321,0,1,0,1.321,1.321A1.321,1.321,0,0,0,401.321,251.515Zm0,1.762a.44.44,0,1,1,.44-.44A.44.44,0,0,1,401.321,253.277Z" transform="translate(-400 -251.515)" fill="#5688e8"/>
      </g>
    </g>
  </g>
</svg>
